Patient4_TMGait_0pt6_01_right_22_EMG.mot
version=1
nRows=23
nColumns=33
inDegrees=no
endheader
time	1LAddLong	2LGlutMax	3LGlutMed	4LIliopsoas	5LSemiMemb	6LBicFemLong	7LRecFem	8LVastMed	9LVastLat	10LGasMed	11LTibAnt	12lTibPost	13LPeroneusLong	14LSol	15LExtDigLong	16LFlexDigLong	17RAddLong	18RGlutMax	19RGlutMed	20RIliopsoas	21RSemiMemb	22RBicFemLong	23RRecFem	24RVastMed	25RVastLat	26RGasMed	27RTibAnt	28RTibPost	29RPeroneusLong	30RSol	31RExtDigLong	32RFlexDigLong
27.03	-0.011902	0.047302	0.1152	0.021362	0.11047	-0.046844	0.070038	0.013733	-0.065765	0.040131	-0.063782	0.00351	-0.019379	0.012817	0.04776	0.002747	-0.059967	-0.090485	0.28732	0.023193	0.053711	0.13519	-0.025635	0.084839	0.013733	-0.000153	0.69458	-0.18982	-0.079803	-0.38711	-0.001526	-0.020599
27.031	-0.012817	0.088043	0.077057	0.016632	0.023956	-0.00824	0.053406	0.015869	-0.072479	0.046692	-0.062714	-0.002899	-0.20874	0.00351	0.02243	-0.005493	-0.046234	-0.097656	0.3186	0.039215	0.04425	0.061798	-0.079193	0.12695	0.032806	-0.013733	-0.12543	0.046082	-0.33188	0.038452	-0.002594	-0.025482
27.032	-0.00824	0.1088	0.046692	0.006104	-0.023041	-0.042267	-0.016479	0.011597	-0.072479	0.06012	-0.056763	0.00824	-0.065308	0.003052	0.004883	0.00412	-0.026398	-0.09079	-0.14175	0.032654	0.056763	0.031128	-0.044556	0.0737	0.009918	-0.022278	-0.58075	0.08194	-0.37384	0.068665	-0.007019	-0.019989
27.033	0.000153	0.013123	0.018311	0.011292	-0.018005	-0.023346	-0.027008	0.002747	-0.052795	0.071716	0.012817	-0.001678	0.072479	-0.028992	-0.015564	-0.000458	-0.029449	-0.11978	-0.040131	-0.007935	0.084229	0.041199	-0.070038	0.089264	0.042572	-0.009766	0.06424	0.00885	-0.15579	0.13153	-0.006104	-0.023804
27.034	0.014496	-0.054321	-0.005798	-0.001068	0.041351	0.004272	-0.020905	-0.011292	0.018921	0.14633	0.11871	0.006714	0.082092	-0.035248	0.016174	0.002747	-0.056458	-0.078583	-0.016785	0.12085	0.018463	-0.012665	-0.055084	0.11383	0.04425	0.00061	0.090027	-0.016022	0.000153	0.24994	-0.001221	-0.021362
27.035	0.010223	-0.10147	-0.041199	0.001526	0.027771	0.000305	-0.049896	-0.010071	0.036011	0.19608	0.063324	0.000153	-0.004425	-0.027771	0.017853	-0.001373	-0.086365	-0.092621	-0.054474	0.10544	0.23132	-0.01358	-0.033264	0.10788	0.035553	-0.002747	-0.19852	-0.019989	0.19455	0.25986	0.000305	-0.014801
27.036	0.010834	-0.11307	-0.04364	0.001221	-0.000153	-0.069885	-0.015717	-0.016479	0.023651	0.18112	0.037689	0.005341	-0.13886	-0.023651	0.019379	-0.010986	-0.001984	-0.071106	-0.20767	0.10742	-0.11032	0.12726	0.037994	0.1265	0.005493	-0.001373	-0.16739	-0.029297	0.34012	-0.061035	0.001221	-0.014801
27.037	0.019226	-0.21835	-0.027924	0.02182	-0.030212	-0.2684	-0.015411	-0.015564	0.03006	0.14938	0.072937	0.008698	-0.13672	0.022736	0.046692	-0.005798	0.054626	-0.056	-0.28107	0.063629	-0.062103	0.22217	0.023651	0.055847	-0.020142	0.009613	-0.042572	-0.023346	0.40924	0.025787	-0.003815	-0.014191
27.038	0.022736	-0.3215	-0.032196	0.020142	0.014038	-0.063171	0.00946	-0.014343	0.066986	0.042877	0.11978	0.005493	0.52094	-0.046997	0.041046	-0.001984	0.044708	-0.032043	-0.14923	0.020294	-0.045471	0.30334	0.10925	-0.000305	-0.030823	0.006714	0.049133	-0.022888	0.29434	-0.1709	0.001373	-0.015106
27.039	0.001068	-0.34241	-0.014038	0.000458	0.016632	0.12665	0.022888	0.000916	0.063019	-0.1561	0.05127	0	0.56992	0.084229	0.076141	-0.00061	-0.018005	-0.002289	0.073242	-0.042877	-0.26413	0.52078	0.064087	-0.041199	0.020447	-0.001526	0.053101	-0.021515	0.20737	-0.34759	-0.002136	-0.012665
27.04	-0.008392	-0.37018	0.010376	0.004272	0.024567	-0.008392	0.014801	0.007019	0.096741	-0.18249	-0.071564	0.006256	-0.054169	0.1088	0.086517	-0.01358	-0.080566	-0.000763	0.18906	-0.055542	0.20416	0.49072	-0.033722	-0.073395	0.074158	0.001678	0.033417	-0.022736	0.14954	-0.14435	-0.003357	-0.016937
27.041	0.001068	-0.36529	0.044708	0.005341	0.008698	-0.007629	-0.001068	0.006104	0.14572	0.023346	-0.014343	0.007019	-0.001373	0.050201	0.099182	-0.006409	-0.033722	0.051117	0.45502	-0.029755	0.43579	0.37811	-0.077667	-0.026093	0.054016	-0.002747	-0.000763	-0.020752	0.095367	0.45441	-0.003052	-0.009918
27.042	0.006561	-0.37872	0.037231	0.000763	0.062103	0.12039	0.007782	0.015717	0.14358	0.13214	0.003052	0.003967	0.47134	0.035095	0.027924	-0.020447	0.022278	-0.003052	-0.30731	-0.002899	0.067749	0.37231	-0.058136	-0.006561	0.00061	0.000763	-0.016785	-0.025177	0.037079	1.0378	-0.002899	-0.011292
27.043	0.022125	-0.40237	0.041351	0.001221	0.06485	0.14008	-0.055389	0.017853	0.095215	0.1004	-0.005035	0.008545	0.37079	0.13473	0.027466	-0.009766	0.041656	-0.028992	-0.16342	-0.11597	0.20599	0.18997	-0.052185	0.00885	-0.059052	-0.009613	0.069427	-0.02243	-0.073395	1.1963	-0.00351	-0.0177
27.044	0.014648	-0.38696	0.019684	0.000305	0.031738	0.094147	-0.16007	0.024719	0.007477	0.028839	-0.012817	0.004578	0.042267	0.17853	-0.023804	0.003662	0.037079	0.078125	-0.12146	-0.1918	0.17899	0.13306	-0.13458	-0.003662	-0.085754	-0.022278	0.40314	-0.011444	-0.081635	0.87509	-0.003662	-0.014343
27.045	0.010986	-0.27527	-0.031433	0.008392	0.007935	0.05722	-0.081024	0.018768	-0.095062	-0.019989	-0.00412	0.006866	-0.032501	0.14603	-0.05249	0.005188	0.025787	0.030823	-0.31113	-0.16663	0.21683	-0.033875	-0.035706	0.054779	-0.076599	-0.010986	0.46631	-0.008698	-0.013275	0.61722	-0.004883	-0.018463
27.046	-0.002747	-0.25421	-0.029144	-0.005188	0.005798	-0.12405	0.018616	0.012512	-0.17944	-0.000305	0.015869	0.003204	-0.32822	0.11871	0.22797	-0.011749	0.010223	0.021515	-0.28381	-0.082703	0.081482	-0.055695	0.1236	0.062866	-0.13397	-0.016937	0.7309	-0.010681	-0.097198	0.42618	-0.004272	-0.021362
27.047	-0.000763	-0.22934	0.009155	0.00885	0.010223	-0.30868	-0.003204	0.010376	-0.095062	0.028839	-0.040131	0.004578	-0.31891	0.085297	-0.13886	0.006256	0.015717	-0.013123	-0.19547	0.14511	0.2536	-0.11307	0.25604	-0.04776	-0.070801	-0.020447	0.66925	-0.01236	-0.12894	-0.058746	-0.002594	-0.027466
27.048	-0.004883	-0.18585	0.10117	0.011597	0.026093	-0.18982	-0.019684	0.033112	-0.023499	0.19073	-0.037994	0.005341	-0.46341	-0.022125	-0.28214	0.01297	0.024109	0.006409	-0.034332	0.28992	0.19486	-0.092621	0.24674	0.006104	0.15121	-0.020447	-0.33707	-0.010071	0.065155	-0.34988	-0.00061	-0.02182
27.049	-0.003967	-0.25253	0.21637	-0.005493	-0.019836	-0.17685	-0.025787	0.031738	0.001831	0.25467	-0.061646	0.001526	0.11704	-0.088043	-0.35904	0.012665	-0.007172	-0.019989	-0.16098	0.24841	0.1831	-0.1651	0.2005	0.024414	0.25162	-0.028839	-0.80658	-0.013275	0.24292	-0.42877	-0.001068	-0.019836
27.05	-0.002441	-0.31998	0.15671	-0.000305	-0.056152	-0.15717	-0.036163	0.00946	0.054932	0.13687	-0.027924	0.00351	0.046997	-0.043335	-0.17624	0.009766	0.004425	-0.037689	0.22644	0.10513	0.14099	-0.27268	0.036163	-0.18967	0.18402	-0.031433	-0.896	-0.018921	0.23178	-0.41184	-0.005035	-0.016785
27.051	-0.011139	-0.3157	0.14191	0.001678	-0.07309	-0.10834	0.056	0.002289	-0.01297	-0.072784	0.010376	0.013275	-0.43213	-0.013275	-0.090027	0.010834	-0.03067	-0.057068	0.017853	0.04303	0.032654	-0.069427	-0.37888	-0.1149	0.27908	-0.011444	-0.31769	-0.013733	0.10681	-0.37231	-0.00061	-0.015411
27.052	-0.024109	-0.25238	0.066681	0.000305	-0.042419	-0.093536	0.10147	0.017395	-0.19241	-0.22888	-0.023041	0.012054	-0.2298	0.051575	-0.060272	0.009308	-0.021362	-0.042572	0.026855	0.04364	0.003204	0.12375	-0.29999	0.066376	0.29404	0.01236	-0.052948	-0.01358	0.049744	-0.15915	-0.003357	-0.019836
